<svg xmlns="http://www.w3.org/2000/svg" width="1024" height="1024" viewBox="0 0 1024 1024">
<g>
<path d="M 411.00 488.22 L 411.00 509.00 L 404.00 509.00 L 404.00 453.71 L 419.44 454.23 C432.26,454.66 435.45,455.08 438.19,456.68 C448.94,462.96 448.63,478.86 437.63,485.11 C434.13,487.10 431.79,487.52 422.25,487.84 ZM 528.17 508.97 C512.63,513.29 501.90,504.18 502.04,486.81 C502.16,473.32 508.44,466.63 521.00,466.63 C532.51,466.63 537.80,471.68 538.76,483.56 L 539.27 490.00 L 508.84 490.00 L 509.54 493.25 C510.74,498.84 513.00,502.10 516.73,503.66 C521.28,505.56 526.41,504.68 529.66,501.43 C532.10,498.99 536.37,498.18 537.46,499.94 C538.49,501.60 531.99,507.91 528.17,508.97 ZM 475.11 501.25 C470.59,508.02 469.56,509.00 466.97,509.00 C465.34,509.00 464.00,508.75 464.00,508.43 C464.00,507.34 466.18,503.83 471.96,495.55 L 477.80 487.21 L 472.53 479.77 C469.64,475.68 466.48,471.14 465.52,469.67 L 463.77 467.00 L 467.63 467.02 C471.38,467.04 471.66,467.30 476.58,475.13 L 481.67 483.21 L 486.81 475.10 C491.66,467.47 492.16,467.00 495.48,467.00 C497.42,467.00 499.00,467.26 499.00,467.57 C499.00,467.88 496.39,471.82 493.20,476.32 C490.01,480.82 487.03,485.11 486.58,485.85 C486.03,486.76 488.09,490.58 492.84,497.47 C496.74,503.12 499.64,508.03 499.29,508.37 C498.95,508.72 497.42,509.00 495.90,509.00 C493.52,509.00 492.33,507.78 487.50,500.37 C484.40,495.62 481.51,492.13 481.07,492.62 C480.63,493.10 477.95,496.99 475.11,501.25 ZM 411.00 460.00 L 411.00 482.00 L 420.55 482.00 C431.36,482.00 435.07,480.69 437.48,476.03 C439.37,472.38 439.40,469.88 437.58,465.54 C435.79,461.24 431.82,460.01 419.75,460.01 ZM 552.00 451.00 L 552.00 509.00 L 545.00 509.00 L 545.00 451.00 ZM 460.00 467.00 L 460.00 509.00 L 453.00 509.00 L 453.00 467.00 ZM 509.71 483.25 C509.93,483.66 515.04,484.00 521.06,484.00 C533.13,484.00 533.25,483.92 530.65,477.72 C528.71,473.07 526.65,471.78 521.03,471.69 C517.08,471.63 515.50,472.12 513.50,474.00 C511.06,476.30 508.85,481.69 509.71,483.25 ZM 459.81 454.25 C459.54,457.11 459.11,457.54 456.25,457.81 C453.13,458.11 453.00,457.98 453.00,454.56 C453.00,451.15 453.15,451.00 456.56,451.00 C459.98,451.00 460.11,451.13 459.81,454.25 Z" fill="rgb(16,47,116)"/>
<path d="M 301.80 544.80 C300.94,545.66 294.24,546.00 278.00,546.00 C261.76,546.00 255.06,545.66 254.20,544.80 C252.48,543.08 252.48,482.92 254.20,481.20 C255.90,479.50 300.10,479.50 301.80,481.20 C303.52,482.92 303.52,543.08 301.80,544.80 ZM 301.80 467.80 C300.10,469.50 255.90,469.50 254.20,467.80 C252.50,466.10 252.50,420.90 254.20,419.20 C255.90,417.50 300.10,417.50 301.80,419.20 C303.50,420.90 303.50,466.10 301.80,467.80 Z" fill="rgb(29,74,117)"/>
<path d="M 350.50 509.90 C344.24,511.44 318.53,511.95 315.81,510.59 L 313.50 509.44 L 313.24 465.09 C313.04,431.52 313.27,420.38 314.19,419.27 C315.19,418.07 318.48,417.87 332.95,418.17 L 350.50 418.52 L 358.07 422.21 C382.56,434.15 391.94,462.47 379.53,486.95 C374.25,497.36 361.93,507.10 350.50,509.90 ZM 302.17 545.35 C300.58,546.78 297.37,547.00 277.74,547.00 L 255.15 547.00 L 253.07 544.37 C251.09,541.84 251.00,540.55 251.00,513.30 C251.00,485.28 251.35,481.80 254.40,479.77 C255.00,479.36 265.62,479.04 278.00,479.05 C295.14,479.06 300.92,479.38 302.25,480.39 C303.85,481.61 304.00,484.37 304.00,512.71 C304.00,541.45 303.87,543.81 302.17,545.35 ZM 301.80 544.80 C303.52,543.08 303.52,482.92 301.80,481.20 C300.10,479.50 255.90,479.50 254.20,481.20 C252.48,482.92 252.48,543.08 254.20,544.80 C255.06,545.66 261.76,546.00 278.00,546.00 C294.24,546.00 300.94,545.66 301.80,544.80 ZM 302.25 468.61 C300.92,469.62 295.09,469.94 277.79,469.97 C255.69,470.00 255.02,469.94 253.04,467.81 C251.11,465.75 251.00,464.38 251.00,443.49 C251.00,441.08 250.98,438.89 250.97,436.89 C250.88,426.93 250.84,421.91 253.33,419.40 C255.86,416.84 261.01,416.88 271.40,416.97 C273.44,416.98 275.69,417.00 278.16,417.00 C298.72,417.00 300.83,417.16 302.35,418.83 C303.79,420.42 304.00,423.68 304.00,443.97 C304.00,465.00 303.83,467.41 302.25,468.61 ZM 301.80 467.80 C303.50,466.10 303.50,420.90 301.80,419.20 C300.10,417.50 255.90,417.50 254.20,419.20 C252.50,420.90 252.50,466.10 254.20,467.80 C255.90,469.50 300.10,469.50 301.80,467.80 ZM 628.10 508.99 C623.90,510.16 621.58,510.15 617.64,508.97 C610.84,506.93 607.47,499.76 607.58,487.50 C607.70,473.48 612.99,466.01 622.82,466.00 C627.47,466.00 630.21,467.08 633.75,470.30 L 636.00 472.35 L 636.00 451.00 L 643.00 451.00 L 643.00 509.13 L 639.79 508.81 C637.38,508.58 636.44,507.92 636.03,506.15 L 635.48 503.81 L 633.59 505.90 C632.55,507.05 630.08,508.44 628.10,508.99 ZM 565.01 500.97 L 561.78 509.00 L 554.13 509.00 L 564.66 483.25 C570.45,469.09 575.43,456.69 575.73,455.70 C576.16,454.25 577.13,453.96 580.77,454.20 L 585.27 454.50 L 596.14 481.41 C602.11,496.21 607.00,508.48 607.00,508.66 C607.00,508.85 605.31,509.00 603.25,509.00 C599.50,508.99 599.50,508.99 596.46,501.25 L 593.42 493.50 L 580.84 493.22 L 568.25 492.94 ZM 704.78 508.48 C694.57,512.65 685.62,507.29 685.62,497.00 C685.62,487.91 690.88,484.10 704.65,483.24 L 713.00 482.72 L 713.00 479.36 C713.00,475.22 710.31,472.34 705.64,471.46 C701.43,470.67 696.90,472.59 695.51,475.75 C694.86,477.23 693.67,477.99 692.01,477.98 C687.67,477.96 686.93,476.86 688.75,473.09 C692.97,464.39 712.28,463.40 717.67,471.62 C719.15,473.87 719.60,477.11 720.00,488.62 C720.28,496.44 720.79,503.12 721.14,503.47 C721.49,503.82 722.72,504.18 723.89,504.27 C725.38,504.38 726.00,505.10 726.00,506.71 C726.00,508.74 725.52,509.00 721.65,509.00 C717.19,509.00 715.03,507.53 713.60,503.54 C712.94,501.70 712.78,501.74 710.70,504.27 C709.49,505.75 706.83,507.65 704.78,508.48 ZM 736.00 494.45 L 736.00 509.00 L 729.00 509.00 L 729.00 467.00 L 732.00 467.00 C734.69,467.00 735.00,467.32 735.00,470.10 L 735.00 473.21 L 738.52 470.12 C742.73,466.42 745.60,465.58 751.68,466.27 C754.80,466.62 757.06,467.61 758.87,469.41 C761.49,472.04 761.50,472.08 761.81,490.52 L 762.12 509.00 L 755.00 509.00 L 755.00 492.72 C755.00,474.66 754.45,472.74 748.97,471.64 C744.71,470.79 739.47,473.19 737.57,476.87 C736.36,479.21 736.00,483.20 736.00,494.45 ZM 618.52 501.61 C620.27,503.36 622.02,504.00 625.03,504.00 C633.16,504.00 637.05,496.42 635.68,483.20 C635.36,480.09 634.27,476.49 633.21,475.06 C629.40,469.93 620.32,470.06 617.06,475.28 C615.43,477.88 614.44,490.22 615.44,495.53 C615.82,497.56 617.21,500.30 618.52,501.61 ZM 675.12 493.00 L 669.29 508.50 L 665.14 508.81 C661.40,509.09 660.89,508.84 659.90,506.31 C657.62,500.46 646.00,467.95 646.00,467.43 C646.00,467.13 647.66,467.02 649.68,467.19 L 653.37 467.50 L 658.91 484.25 C661.96,493.46 664.71,501.00 665.01,501.00 C665.32,501.00 668.20,493.35 671.41,484.00 L 677.25 467.00 L 684.93 467.00 L 682.94 472.25 C681.84,475.14 678.32,484.48 675.12,493.00 ZM 783.58 509.00 C782.25,509.00 780.56,509.16 779.83,509.36 C777.10,510.10 773.90,508.77 772.23,506.22 C770.82,504.08 770.44,500.68 770.16,487.80 C769.85,473.03 769.70,472.00 767.91,472.00 C766.54,472.00 766.00,471.30 766.00,469.50 C766.00,467.50 766.50,467.00 768.50,467.00 C769.88,467.00 771.00,466.44 771.01,465.75 C771.01,465.06 771.49,462.78 772.07,460.69 C772.93,457.59 773.53,456.94 775.31,457.19 C777.16,457.45 777.55,458.24 777.80,462.25 C778.11,466.94 778.15,467.00 781.55,467.00 C784.56,467.00 785.00,467.32 785.00,469.50 C785.00,471.69 784.57,472.00 781.50,472.00 L 778.00 472.00 L 778.00 487.43 C778.00,498.60 778.00,502.24 779.71,503.43 C780.53,504.00 781.75,504.00 783.57,504.00 L 783.58 504.00 C785.49,504.00 786.00,504.52 786.00,506.50 C786.00,508.48 785.49,509.00 783.58,509.00 ZM 571.01 486.25 C571.00,486.66 575.49,487.00 580.99,487.00 L 590.97 487.00 L 588.89 481.75 C587.74,478.86 585.89,474.02 584.76,471.00 C583.64,467.98 582.29,464.38 581.77,463.00 C580.93,460.77 580.31,461.83 575.92,473.00 C573.23,479.88 571.01,485.84 571.01,486.25 ZM 694.52 502.38 C696.90,504.76 704.10,504.50 707.39,501.91 C710.81,499.22 713.00,494.93 713.00,490.92 L 713.00 487.73 L 705.91 488.24 C696.82,488.89 693.63,491.02 693.20,496.73 C693.00,499.43 693.43,501.29 694.52,502.38 Z" fill="rgb(138,195,233)"/>
<path d="M 0.00 512.00 L 0.00 0.00 L 512.00 0.00 L 1024.00 0.00 L 1024.00 512.00 L 1024.00 1024.00 L 512.00 1024.00 L 0.00 1024.00 L 0.00 512.00 ZM 302.17 545.35 C303.87,543.81 304.00,541.45 304.00,512.71 C304.00,484.37 303.85,481.61 302.25,480.39 C300.92,479.38 295.14,479.06 278.00,479.05 C265.62,479.04 255.00,479.36 254.40,479.77 C251.35,481.80 251.00,485.28 251.00,513.30 C251.00,540.55 251.09,541.84 253.07,544.37 L 255.15 547.00 L 277.74 547.00 C297.37,547.00 300.58,546.78 302.17,545.35 ZM 350.50 509.90 C361.93,507.10 374.25,497.36 379.53,486.95 C391.94,462.47 382.56,434.15 358.07,422.21 L 350.50 418.52 L 332.95 418.17 C318.48,417.87 315.19,418.07 314.19,419.27 C313.27,420.38 313.04,431.52 313.24,465.09 L 313.50 509.44 L 315.81 510.59 C318.53,511.95 344.24,511.44 350.50,509.90 ZM 528.17 508.97 C531.99,507.91 538.49,501.60 537.46,499.94 C536.37,498.18 532.10,498.99 529.66,501.43 C526.41,504.68 521.28,505.56 516.73,503.66 C513.00,502.10 510.74,498.84 509.54,493.25 L 508.84 490.00 L 524.06 490.00 L 539.27 490.00 L 538.76 483.56 C537.80,471.68 532.51,466.63 521.00,466.63 C508.44,466.63 502.16,473.32 502.04,486.81 C501.90,504.18 512.63,513.29 528.17,508.97 ZM 628.10 508.99 C630.08,508.44 632.55,507.05 633.59,505.90 L 635.48 503.81 L 636.03 506.15 C636.44,507.92 637.38,508.58 639.79,508.81 L 643.00 509.13 L 643.00 480.06 L 643.00 451.00 L 639.50 451.00 L 636.00 451.00 L 636.00 461.67 L 636.00 472.35 L 633.75 470.30 C630.21,467.08 627.47,466.00 622.82,466.00 C612.99,466.01 607.70,473.48 607.58,487.50 C607.47,499.76 610.84,506.93 617.64,508.97 C621.58,510.15 623.90,510.16 628.10,508.99 ZM 704.78 508.48 C706.83,507.65 709.49,505.75 710.70,504.27 C712.78,501.74 712.94,501.70 713.60,503.54 C715.03,507.53 717.19,509.00 721.65,509.00 C725.52,509.00 726.00,508.74 726.00,506.71 C726.00,505.10 725.38,504.38 723.89,504.27 C722.72,504.18 721.49,503.82 721.14,503.47 C720.79,503.12 720.28,496.44 720.00,488.62 C719.60,477.11 719.15,473.87 717.67,471.62 C712.28,463.40 692.97,464.39 688.75,473.09 C686.93,476.86 687.67,477.96 692.01,477.98 C693.67,477.99 694.86,477.23 695.51,475.75 C696.90,472.59 701.43,470.67 705.64,471.46 C710.31,472.34 713.00,475.22 713.00,479.36 L 713.00 482.72 L 704.65 483.24 C690.88,484.10 685.62,487.91 685.62,497.00 C685.62,507.29 694.57,512.65 704.78,508.48 ZM 783.58 509.00 C785.49,509.00 786.00,508.48 786.00,506.50 C786.00,504.52 785.49,504.00 783.58,504.00 C778.00,504.00 778.00,504.01 778.00,487.39 L 778.00 472.00 L 781.50 472.00 C784.57,472.00 785.00,471.69 785.00,469.50 C785.00,467.32 784.56,467.00 781.55,467.00 C778.15,467.00 778.11,466.94 777.80,462.25 C777.55,458.24 777.16,457.45 775.31,457.19 C773.53,456.94 772.93,457.59 772.07,460.69 C771.49,462.78 771.01,465.06 771.01,465.75 C771.00,466.44 769.88,467.00 768.50,467.00 C766.50,467.00 766.00,467.50 766.00,469.50 C766.00,471.30 766.54,472.00 767.91,472.00 C769.70,472.00 769.85,473.03 770.16,487.80 C770.44,500.68 770.82,504.08 772.23,506.22 C773.90,508.77 777.10,510.10 779.83,509.36 C780.56,509.16 782.25,509.00 783.58,509.00 ZM 411.00 498.61 L 411.00 488.22 L 422.25 487.84 C431.79,487.52 434.13,487.10 437.63,485.11 C448.63,478.86 448.94,462.96 438.19,456.68 C435.45,455.08 432.26,454.66 419.44,454.23 L 404.00 453.71 L 404.00 481.36 L 404.00 509.00 L 407.50 509.00 L 411.00 509.00 L 411.00 498.61 ZM 460.00 488.00 L 460.00 467.00 L 456.50 467.00 L 453.00 467.00 L 453.00 488.00 L 453.00 509.00 L 456.50 509.00 L 460.00 509.00 L 460.00 488.00 ZM 475.11 501.25 C477.95,496.99 480.63,493.10 481.07,492.62 C481.51,492.13 484.40,495.62 487.50,500.37 C492.33,507.78 493.52,509.00 495.90,509.00 C497.42,509.00 498.95,508.72 499.29,508.37 C499.64,508.03 496.74,503.12 492.84,497.47 C488.09,490.58 486.03,486.76 486.58,485.85 C487.03,485.11 490.01,480.82 493.20,476.32 C496.39,471.82 499.00,467.88 499.00,467.57 C499.00,467.26 497.42,467.00 495.48,467.00 C492.16,467.00 491.66,467.47 486.81,475.10 L 481.67 483.21 L 476.58 475.13 C471.66,467.30 471.38,467.04 467.63,467.02 L 463.77 467.00 L 465.52 469.67 C466.48,471.14 469.64,475.68 472.53,479.77 L 477.80 487.21 L 471.96 495.55 C466.18,503.83 464.00,507.34 464.00,508.43 C464.00,508.75 465.34,509.00 466.97,509.00 C469.56,509.00 470.59,508.02 475.11,501.25 ZM 552.00 480.00 L 552.00 451.00 L 548.50 451.00 L 545.00 451.00 L 545.00 480.00 L 545.00 509.00 L 548.50 509.00 L 552.00 509.00 L 552.00 480.00 ZM 565.01 500.97 L 568.25 492.94 L 580.84 493.22 L 593.42 493.50 L 596.46 501.25 C599.50,508.99 599.50,508.99 603.25,509.00 C605.31,509.00 607.00,508.85 607.00,508.66 C607.00,508.48 602.11,496.21 596.14,481.41 L 585.27 454.50 L 580.77 454.20 C577.13,453.96 576.16,454.25 575.73,455.70 C575.43,456.69 570.45,469.09 564.66,483.25 L 554.13 509.00 L 557.95 509.00 L 561.78 509.00 L 565.01 500.97 ZM 675.12 493.00 C678.32,484.48 681.84,475.14 682.94,472.25 L 684.93 467.00 L 681.09 467.00 L 677.25 467.00 L 671.41 484.00 C668.20,493.35 665.32,501.00 665.01,501.00 C664.71,501.00 661.96,493.46 658.91,484.25 L 653.37 467.50 L 649.68 467.19 C647.66,467.02 646.00,467.13 646.00,467.43 C646.00,467.95 657.62,500.46 659.90,506.31 C660.89,508.84 661.40,509.09 665.14,508.81 L 669.29 508.50 L 675.12 493.00 ZM 736.00 494.45 C736.00,483.20 736.36,479.21 737.57,476.87 C739.47,473.19 744.71,470.79 748.97,471.64 C754.45,472.74 755.00,474.66 755.00,492.72 L 755.00 509.00 L 758.56 509.00 L 762.12 509.00 L 761.81 490.52 C761.50,472.08 761.49,472.04 758.87,469.41 C757.06,467.61 754.80,466.62 751.68,466.27 C745.60,465.58 742.73,466.42 738.52,470.12 L 735.00 473.21 L 735.00 470.10 C735.00,467.32 734.69,467.00 732.00,467.00 L 729.00 467.00 L 729.00 488.00 L 729.00 509.00 L 732.50 509.00 L 736.00 509.00 L 736.00 494.45 ZM 302.25 468.61 C303.83,467.41 304.00,465.00 304.00,443.97 C304.00,423.68 303.79,420.42 302.35,418.83 C300.83,417.16 298.72,417.00 278.16,417.00 C248.33,417.00 251.00,414.40 251.00,443.49 C251.00,464.38 251.11,465.75 253.04,467.81 C255.02,469.94 255.69,470.00 277.79,469.97 C295.09,469.94 300.92,469.62 302.25,468.61 ZM 459.81 454.25 C460.11,451.13 459.98,451.00 456.56,451.00 C453.15,451.00 453.00,451.15 453.00,454.56 C453.00,457.98 453.13,458.11 456.25,457.81 C459.11,457.54 459.54,457.11 459.81,454.25 ZM 509.71 483.25 C508.85,481.69 511.06,476.30 513.50,474.00 C515.50,472.12 517.08,471.63 521.03,471.69 C526.65,471.78 528.71,473.07 530.65,477.72 C533.25,483.92 533.13,484.00 521.06,484.00 C515.04,484.00 509.93,483.66 509.71,483.25 ZM 618.52 501.61 C617.21,500.30 615.82,497.56 615.44,495.53 C614.44,490.22 615.43,477.88 617.06,475.28 C620.32,470.06 629.40,469.93 633.21,475.06 C634.27,476.49 635.36,480.09 635.68,483.20 C637.05,496.42 633.16,504.00 625.03,504.00 C622.02,504.00 620.27,503.36 618.52,501.61 ZM 694.52 502.38 C693.43,501.29 693.00,499.43 693.20,496.73 C693.63,491.02 696.82,488.89 705.91,488.24 L 713.00 487.73 L 713.00 490.92 C713.00,494.93 710.81,499.22 707.39,501.91 C704.10,504.50 696.90,504.76 694.52,502.38 ZM 411.00 471.00 L 411.00 460.00 L 419.75 460.01 C431.82,460.01 435.79,461.24 437.58,465.54 C439.40,469.88 439.37,472.38 437.48,476.03 C435.07,480.69 431.36,482.00 420.55,482.00 L 411.00 482.00 L 411.00 471.00 ZM 571.01 486.25 C571.01,485.84 573.23,479.88 575.92,473.00 C580.31,461.83 580.93,460.77 581.77,463.00 C582.29,464.38 583.64,467.98 584.76,471.00 C585.89,474.02 587.74,478.86 588.89,481.75 L 590.97 487.00 L 580.99 487.00 C575.49,487.00 571.00,486.66 571.01,486.25 Z" fill="rgb(254,254,254)"/>
</g>
</svg>